<?xml version="1.0" encoding="iso-8859-1"?>
<!-- Uploaded to: SVG Repo, www.svgrepo.com, Generator: SVG Repo Mixer Tools -->
<svg version="1.1" id="Layer_1" xmlns="http://www.w3.org/2000/svg" xmlns:xlink="http://www.w3.org/1999/xlink" 
	 viewBox="0 0 291.244 291.244" xml:space="preserve">
<g>
	<g>
		<g id="XMLID_24_">
			<g>
				<polygon style="fill:#EAEEEF;" points="211.009,241.111 178.234,274.76 113.042,274.76 80.235,241.111 				"/>
				<path style="fill:#EAEEEF;" d="M176.421,110.208l37.794,38.766H77.029l36.466-37.405c1.522-1.555,2.332-3.595,2.332-5.732V91.23
					h58.262v13.246C174.089,106.614,174.931,108.654,176.421,110.208z"/>
				<path style="fill:#2D213F;" d="M241.322,156.293v74.228c0,2.137-0.842,4.178-2.332,5.7l-51.169,52.497
					c-1.555,1.619-3.757,2.526-6.024,2.526h-72.35c-2.267,0-4.437-0.907-6.024-2.526l-51.169-52.497
					c-1.49-1.522-2.332-3.562-2.332-5.7v-74.228c0-2.137,0.842-4.178,2.332-5.732l46.83-48.028V82.972
					c0-4.566,3.757-8.258,8.388-8.258h17.488V61.759h-3.983c-2.17,0-4.243-0.81-5.797-2.299L91.214,36.855
					c-1.652-1.555-2.558-3.724-2.558-5.959c0-2.267,0.907-4.404,2.558-5.959L115.18,2.299C116.734,0.842,118.807,0,120.977,0h47.898
					c2.17,0,4.243,0.842,5.797,2.299l23.965,22.638c1.652,1.555,2.591,3.692,2.591,5.959c0,2.235-0.939,4.404-2.591,5.959
					L174.672,59.46c-1.555,1.49-3.627,2.299-5.797,2.299h-4.664v12.954h18.266c4.631,0,8.355,3.692,8.355,8.258v18.201
					l48.157,49.388C240.48,152.115,241.322,154.156,241.322,156.293z M224.578,224.594V165.49H66.698v59.104H224.578z
					 M214.215,148.974l-37.794-38.766c-1.49-1.555-2.332-3.595-2.332-5.732V91.23h-58.262v14.606c0,2.137-0.81,4.178-2.332,5.732
					l-36.466,37.405L214.215,148.974L214.215,148.974z M178.234,274.76l32.774-33.649H80.235l32.807,33.649H178.234z
					 M165.507,45.275l15.221-14.379l-15.221-14.379h-41.162l-15.221,14.379l15.221,14.379H165.507z M147.468,74.714V61.759h-5.765
					v12.954L147.468,74.714L147.468,74.714z"/>
				<rect x="66.698" y="165.491" style="fill:#454D5B;" width="157.88" height="59.104"/>
				<path style="fill:#505967;" d="M66.698,210.099c3.809,3.355,8.524,5.366,13.651,5.366h119.895
					c8.394,0,15.202-7.983,15.202-17.832v-17.368c0-5.907-2.244-11.189-5.778-14.771H66.698V210.099z"/>
				<polygon style="fill:#F2CE75;" points="180.728,30.896 165.507,45.275 124.345,45.275 109.123,30.896 124.345,16.517 
					165.507,16.517 				"/>
				<polygon style="fill:#FEDE94;" points="165.491,16.517 124.345,16.517 109.123,30.896 124.345,45.275 125.148,45.275 
					153.958,40.116 169.179,25.737 				"/>
			</g>
		</g>
		<path style="fill:#C5CBCF;" d="M174.089,104.476V91.23h-10.438v26.679c0,3.88,2.186,7.426,5.655,9.168l43.555,21.896h1.354
			l-37.794-38.766C174.931,108.654,174.089,106.614,174.089,104.476z"/>
		<path style="fill:#C5CBCF;" d="M115.928,104.476V91.23h10.438v26.679c0,3.88-2.186,7.426-5.655,9.168l-43.555,21.896h-1.354
			l37.794-38.766C115.086,108.654,115.928,106.614,115.928,104.476z"/>
		<path style="fill:#C5CBCF;" d="M178.234,274.76l32.314-33.176c-15.085,8.783-42.574,24.658-57.329,33.176H178.234z"/>
		<path style="fill:#C5CBCF;" d="M112.848,274.76l-32.314-33.176c15.085,8.783,42.574,24.658,57.329,33.176H112.848z"/>
	</g>
</g>
</svg>